<svg xmlns="http://www.w3.org/2000/svg" viewBox="0 0 175.68 130.9"><defs><style>.cls-1{fill:#efbf69;}</style></defs><title>Element-Mahkota-Bawah</title><g id="Layer_2" data-name="Layer 2"><g id="_8-Quotes" data-name="8-Quotes"><g id="Element-Mahkota-Bawah"><path class="cls-1" d="M81,111.2a23.56,23.56,0,0,1,5,5.22,2.14,2.14,0,0,0,3.58,0,23.56,23.56,0,0,1,5.05-5.22c7.06-5.39,15.62-12.47,17.15-22.06a14.21,14.21,0,0,0-6-14.09c-8.64-6-17.93.13-17.93,8.36a3.48,3.48,0,0,0,.22,1.19c2.92,8,9.12,8.8,12.73,5.83a3.9,3.9,0,1,0-6.1-4.36c-2-1.35-2.67-4.69,2.58-7.69A2.83,2.83,0,0,1,98.63,78a8.12,8.12,0,0,1,8.09,8.1c0,8.51-8.51,15-15.37,20.25-1.21.92-2.4,1.83-3.51,2.72-1.11-.89-2.29-1.8-3.5-2.72C77.47,101.12,69,94.62,69,86.11a3.58,3.58,0,0,1,.33-1.47c4.75-10.4,13.16-6.78,13.16-1.23A3.19,3.19,0,0,1,81,86.07a3.89,3.89,0,0,0-3.65-2.58,3.93,3.93,0,0,0-3.93,3.93,3.86,3.86,0,0,0,1.49,3c3.6,3,9.8,2.15,12.72-5.81a3.61,3.61,0,0,0,.23-1.21c0-8.23-9.29-14.33-17.94-8.36a14.23,14.23,0,0,0-6,14.09C65.38,98.73,74,105.81,81,111.2Z"/><path class="cls-1" d="M70,29.49a20.25,20.25,0,0,0,6.24-1,18.31,18.31,0,0,0,11.61-12,18.31,18.31,0,0,0,11.61,12,20.26,20.26,0,0,0,6.25,1c10.26,0,11.75-6.62,11.75-9.3a7.74,7.74,0,0,0-14.52-3.75l0,0S96,12.35,92.75,7.17a41.09,41.09,0,0,1-3.12-6,2,2,0,0,0-3.61,0,42.64,42.64,0,0,1-3.09,6c-3.21,5.2-10.16,9.24-10.16,9.24l0,0a7.73,7.73,0,0,0-14.51,3.75C58.24,22.87,59.72,29.49,70,29.49Z"/><path class="cls-1" d="M87.84,30.33C81.91,35.46,78,49.85,78,55.12S80.09,67.4,87.84,67.4s9.89-7,9.89-12.28S93.78,35.46,87.84,30.33Z"/><path class="cls-1" d="M96.63,33.63s0,9.51,8,15.42,15.07,3.67,16.13-.9-3-7.3-7.58-8.21S100.19,37.88,96.63,33.63Z"/><path class="cls-1" d="M79.05,33.63s0,9.51-8,15.42S56,52.72,54.93,48.15s3-7.3,7.59-8.21S75.49,37.88,79.05,33.63Z"/><path class="cls-1" d="M115.55,65.26a4.85,4.85,0,1,1-4.84-4.84A4.85,4.85,0,0,1,115.55,65.26Z"/><path class="cls-1" d="M175.68,37.23a7.1,7.1,0,1,1-7.1-7.1A7.1,7.1,0,0,1,175.68,37.23Z"/><path class="cls-1" d="M60.13,65.26A4.85,4.85,0,1,0,65,60.42,4.85,4.85,0,0,0,60.13,65.26Z"/><path class="cls-1" d="M83,126.05a4.85,4.85,0,1,0,4.85-4.85A4.85,4.85,0,0,0,83,126.05Z"/><path class="cls-1" d="M117.45,30.7s4.69,9.72,17.94,9C148,39,150.29,32.5,148.31,28.32c-1.87-4-8.83-3.23-13.58-.93S123.58,32.33,117.45,30.7Z"/><path class="cls-1" d="M133.85,44.33c-.78,4.53,1.76,12,11.68,15.08,8.07,2.52,15.37,0,17.23-4.51s-1.33-8.4-6.39-7.68-9.22,1.72-13.84,1.16A13.77,13.77,0,0,1,133.85,44.33Z"/><path class="cls-1" d="M136.64,61.58a17.5,17.5,0,0,1,3.82,18.49c-3.3,8.78-11.46,10.74-15.28,8.78s-5.06-6.3-.83-9.4S138.4,70.67,136.64,61.58Z"/><path class="cls-1" d="M58.24,30.7s-4.7,9.72-17.94,9C27.68,39,25.4,32.5,27.37,28.32c1.87-4,8.83-3.23,13.58-.93S52.1,32.33,58.24,30.7Z"/><path class="cls-1" d="M41.83,44.33c.78,4.53-1.76,12-11.67,15.08-8.08,2.52-15.38,0-17.24-4.51s1.33-8.4,6.39-7.68,9.23,1.72,13.84,1.16A13.74,13.74,0,0,0,41.83,44.33Z"/><path class="cls-1" d="M39,61.58a17.5,17.5,0,0,0-3.82,18.49c3.3,8.78,11.46,10.74,15.29,8.78s5.06-6.3.82-9.4S37.29,70.67,39,61.58Z"/><circle class="cls-1" cx="7.1" cy="37.23" r="7.1"/></g></g></g></svg>