<svg xmlns="http://www.w3.org/2000/svg" viewBox="0 0 787.88 626.14"><defs><style>.cls-1{fill:#efbf69;}.cls-2{fill:none;stroke:#efbf69;stroke-miterlimit:10;stroke-width:8px;}</style></defs><title>Element-Border-Groom</title><g id="Layer_2" data-name="Layer 2"><g id="_2-BrideGroom" data-name="2-BrideGroom"><g id="Element-Border-Groom"><path class="cls-1" d="M201.16,557.22c-15.66-9.45-31.59-18.69-49.16-24.63a108.8,108.8,0,0,0-27.44-5.76,85,85,0,0,0-14.35.16,70.51,70.51,0,0,0-14.37,2.94A67.75,67.75,0,0,0,69.93,544.7,54.1,54.1,0,0,0,56.5,564.27l-1.3,3.89a41.54,41.54,0,0,0-1,4.2,44.51,44.51,0,0,0,.27,17A51.72,51.72,0,0,0,60.67,605a46.58,46.58,0,0,0,11.41,12.83,39.3,39.3,0,0,0,16.66,7.71c1.77.33,3.64.45,5.48.62a55.45,55.45,0,0,0,5.6-.24,48.72,48.72,0,0,0,5.62-1.15,55.23,55.23,0,0,0,5.36-2.05,37.51,37.51,0,0,0,15.61-14.46,40.38,40.38,0,0,0,5.75-17.47,35.11,35.11,0,0,0-1.86-15c-2-4.73-4.43-7.65-6.6-9s-3.72-1.4-4.73-.57c-2.16,1.8-1.4,6.32-2.37,13a38.19,38.19,0,0,1-3.25,11.52A27.74,27.74,0,0,1,105.52,601a14.85,14.85,0,0,1-7.08,3.1,16.59,16.59,0,0,1-7.6-.62,26,26,0,0,1-13.28-12,30.36,30.36,0,0,1-3.37-9.09,26.31,26.31,0,0,1,0-9.24A36.16,36.16,0,0,1,84.37,555,52.38,52.38,0,0,1,93.26,548a62.06,62.06,0,0,1,10.48-5.13,57.1,57.1,0,0,1,11.45-2.93,75.73,75.73,0,0,1,12.17-.82c16.49.27,33.09,5.63,48.45,13.11,24.63,12,45.64,29.28,71.43,41.22,3.13,1.47,6.93,3.1,11.24,4.7a104.74,104.74,0,0,0,14.41,4.22,92.18,92.18,0,0,0,16.33,2.14,78.37,78.37,0,0,0,16.61-.91c10.78-1.6,20.23-6.05,25.91-10.62a23.34,23.34,0,0,0,5.86-6.42c1-1.87,1.23-3.23.48-4-1-1.05-3.16-.69-6.13.59-3.13,1.08-7.1,3.1-12.27,4.73a87.28,87.28,0,0,1-16.23,3.5,81.12,81.12,0,0,1-38.58-24.49,89.47,89.47,0,0,1-14.47-23.93,122,122,0,0,1-6.15-19.72c-1.23-5.19-2.08-9.06-3-11.93a16.2,16.2,0,0,0-3-5.94,5.72,5.72,0,0,0-3.34-1.9,5,5,0,0,0-3.78.8c-1.38.92-3,2.69-4.3,6s-2.53,8.13-2.54,15a68.15,68.15,0,0,0,5.55,26.27,74.46,74.46,0,0,0,22.15,29,73.46,73.46,0,0,0,10.38,6.76,182.63,182.63,0,0,1-29.51-12.17C219.25,568,207.78,561.13,201.16,557.22ZM2.38,582c2.86,3.47,8.52,7.36,20.83-2.74S47,545.42,47,545.42,21.43,552,9.12,562.11-.38,578.61,2.38,582Zm25.55-43.44c5.81-.89,14.61-4.65,30.52-10.54,8-2.82,17.07-6,26.48-8.49a214.39,214.39,0,0,1,28-5.68,197,197,0,0,1,22.56-1.54l9.26.13-2.27-1c-1.48-.6-3.63-1.57-6.38-2.58A133.32,133.32,0,0,0,82,501a115.94,115.94,0,0,0-31,6.09c-18.4,6.8-26.91,14.36-30.75,19.24-3.76,5.12-3,8-1.81,9.75S22.24,539.61,27.93,538.53Zm71.9-48c5.51,2.37,15.18,3.89,32,8.08a272.8,272.8,0,0,1,27.18,8.52,182.88,182.88,0,0,1,26.44,12.53,167.3,167.3,0,0,1,19.17,13.15c4.52,3.83,7.28,6.15,7.28,6.15s-.43-.79-1.2-2.24-1.9-3.6-3.47-6.19a123.23,123.23,0,0,0-39.76-40.08,111.47,111.47,0,0,0-30-13.27,100.41,100.41,0,0,0-13.38-2.54,69.62,69.62,0,0,0-10.61-.59,45.67,45.67,0,0,0-8,.69,26.7,26.7,0,0,0-5.67,1.39c-6.15,2.33-7.08,5.12-7,7.29S94.3,488.4,99.83,490.52Zm455.11,84.54a182.63,182.63,0,0,1-29.51,12.17,73.46,73.46,0,0,0,10.38-6.76,74.46,74.46,0,0,0,22.15-29,68,68,0,0,0,5.55-26.27c0-6.86-1.17-11.71-2.54-15s-2.92-5.07-4.3-6a5,5,0,0,0-3.78-.8,5.72,5.72,0,0,0-3.34,1.9,16.2,16.2,0,0,0-3,5.94c-.88,2.87-1.73,6.74-3,11.93a122,122,0,0,1-6.15,19.72A89.47,89.47,0,0,1,523,566.81a81.12,81.12,0,0,1-38.58,24.49,87.28,87.28,0,0,1-16.23-3.5c-5.17-1.63-9.14-3.65-12.27-4.73-3-1.28-5.15-1.64-6.13-.59-.75.82-.56,2.18.48,4a23.34,23.34,0,0,0,5.86,6.42c5.68,4.57,15.13,9,25.91,10.62a78.33,78.33,0,0,0,16.61.91A91.94,91.94,0,0,0,515,602.34a104.63,104.63,0,0,0,14.43-4.22c4.3-1.6,8.1-3.23,11.23-4.7,25.8-11.94,46.8-29.21,71.43-41.22,15.36-7.48,32-12.84,48.45-13.11a75.73,75.73,0,0,1,12.17.82,57.1,57.1,0,0,1,11.45,2.93A62.06,62.06,0,0,1,694.62,548a52.38,52.38,0,0,1,8.89,7.06,36.16,36.16,0,0,1,10.19,18.11,26.31,26.31,0,0,1,0,9.24,30.36,30.36,0,0,1-3.37,9.09,26,26,0,0,1-13.28,12,16.59,16.59,0,0,1-7.6.62,14.85,14.85,0,0,1-7.08-3.1,27.74,27.74,0,0,1-7.83-10.26,38.48,38.48,0,0,1-3.25-11.52c-1-6.7-.21-11.22-2.37-13-1-.83-2.54-.79-4.73.57s-4.65,4.26-6.6,9a35.11,35.11,0,0,0-1.86,15,40.38,40.38,0,0,0,5.75,17.47,37.51,37.51,0,0,0,15.61,14.46,55.23,55.23,0,0,0,5.36,2.05,48.72,48.72,0,0,0,5.62,1.15,55.45,55.45,0,0,0,5.6.24c1.84-.17,3.71-.29,5.48-.62a39.3,39.3,0,0,0,16.66-7.71A46.58,46.58,0,0,0,727.21,605a51.72,51.72,0,0,0,6.17-15.57,44.71,44.71,0,0,0,.27-17,41.54,41.54,0,0,0-1-4.2l-1.3-3.89A54.1,54.1,0,0,0,718,544.7,67.75,67.75,0,0,0,692,529.93,70.51,70.51,0,0,0,677.67,527a85,85,0,0,0-14.35-.16,108.8,108.8,0,0,0-27.44,5.76c-17.57,5.94-33.5,15.18-49.16,24.63C580.1,561.13,568.63,568,554.94,575.06Zm223.82-12.95c-12.31-10.1-37.85-16.69-37.85-16.69s11.45,23.72,23.76,33.81,18,6.21,20.83,2.74S791.07,572.2,778.76,562.11Zm-9.31-26c1.24-1.78,1.95-4.63-1.81-9.75-3.84-4.88-12.35-12.44-30.75-19.24a115.94,115.94,0,0,0-31-6.09,133.32,133.32,0,0,0-54.09,7.84c-2.75,1-4.89,2-6.37,2.58l-2.28,1,9.26-.13A197,197,0,0,1,675,513.82a214.39,214.39,0,0,1,28,5.68c9.41,2.53,18.47,5.67,26.48,8.49,15.91,5.89,24.71,9.65,30.52,10.54C765.64,539.61,768.18,538,769.45,536.11ZM695,483.41c.09-2.17-.83-5-7-7.29a26.7,26.7,0,0,0-5.67-1.39,45.67,45.67,0,0,0-8-.69,69.62,69.62,0,0,0-10.61.59,100.41,100.41,0,0,0-13.38,2.54,111.47,111.47,0,0,0-30,13.27,123.23,123.23,0,0,0-39.76,40.08c-1.57,2.59-2.66,4.76-3.47,6.19L576,539l7.27-6.15a168.19,168.19,0,0,1,19.17-13.15,182.88,182.88,0,0,1,26.44-12.53A273.62,273.62,0,0,1,656,498.6c16.85-4.19,26.53-5.71,32-8.08C693.58,488.4,694.9,485.65,695,483.41Z"/><circle class="cls-2" cx="393.94" cy="295.62" r="291.62"/></g></g></g></svg>