<svg xmlns="http://www.w3.org/2000/svg" viewBox="0 0 247.13 247.13"><defs><style>.cls-1{fill:#efbf69;}</style></defs><title>Element-Border-3</title><g id="Layer_2" data-name="Layer 2"><g id="_1-Header" data-name="1-Header"><g id="Element-Border-3"><path class="cls-1" d="M104.92,199.24A76.11,76.11,0,0,1,121.43,189c5.89-2.74,19.65-5.89,19.65-5.89s-15.82.88-23.49,4.23c-5.59,2.43-14.88,8.38-18.16,11.8a35.12,35.12,0,0,1-19.28,10c-14.67,2.11-25.49-6.84-25.22-11.64s-6-8.38-9.35-4.83-4.49,16.2,6.76,20.38,32.48-.93,32.48-.93-24,16.45-43.55,6.31S17,200,8.08,201.62s-14.53,16.1,5.71,23.25,46.63,6.89,60,.1a95.1,95.1,0,0,0,20.64-14.64C98.12,206.88,100.6,203,104.92,199.24Z"/><path class="cls-1" d="M160.53,195.52c13.76-5.51,32.72,2.06,32.72,2.06a49.84,49.84,0,0,0-9.73-6.59c-5.6-2.85-21.51-6.78-36.45-6s-37.92,13.75-51.87,30.06-1.87,26,6.68,23,8.45-12.57,20.33-31.14,40.88-16.31,40.88-16.31S142.16,196.79,134.5,206s-.4,19.65,4.32,21,8.35-4.82,5.7-8.84S146.78,201,160.53,195.52Z"/><path class="cls-1" d="M208,198c2.87,0,8.65,5.23,13.86,6.11a21.8,21.8,0,0,0,18.26-5.71c5.32-5.29,8.17-13.63,6.6-20.71s-13.15-15.45-19.4-15.93-16.17,5.59-16.17,13.9,5.29,10.17,8.87,10.14c5.43,0,8.44-3.71,8.44-7.14,0-1.69-1.86-4.14-3.69-5.15s-4.18-.86-4.2-2.42c0-2.9,3.47-4.9,6.47-4.9,6.57,0,11.44,4.45,11.45,11.47a17.11,17.11,0,0,1-17.32,16.89c-9.58,0-19.19-7.15-20.24-14.9-1-7.27.69-9.53,5.21-14.05s7.08-10.87,3.64-12.27c-8.64-3.54-14.35,15.92-12.78,24.75s4.26,15.22,4.26,16.77-1,2.27-3,2.29A6.26,6.26,0,0,1,197,197a7.15,7.15,0,0,1,.15,1.22c0,2-.73,3-2.3,3S187,198.56,178.12,197s-28.29,4.14-24.76,12.78c1.41,3.45,7.76.88,12.28-3.64s6.78-6.19,14.05-5.21c7.75,1.05,14.89,10.66,14.9,20.24a17.11,17.11,0,0,1-16.89,17.33c-7,0-11.47-4.89-11.47-11.45,0-3,2-6.46,4.89-6.48,1.57,0,1.42,2.47,2.44,4.2s3.45,3.7,5.14,3.69c3.43,0,7.16-3,7.15-8.44,0-3.58-1.71-8.87-10.15-8.87s-14.38,9.92-13.9,16.18,8.85,17.82,15.93,19.39,15.42-1.27,20.71-6.6a21.79,21.79,0,0,0,5.71-18.26c-.88-5.21-6.11-11-6.11-13.86a1.67,1.67,0,0,1,1.58-1.88c3,0,10.72,7,12.87,14.63s-3,14.87-3,17.75c0,3.72,1.74,7.73,5.43,6.72s4.31-4.3,4.31-7c0-1.87-2.88-9.5-2.89-11.24,0-3.14,1.17-4.51,2.17-4.52s14.79,13.1,10.7,18.67c-6.49,8.84,11.65,2.4,12.63.74,1.66-1,8.1-19.12-.74-12.63-5.57,4.09-18.68-9.71-18.67-10.7s1.38-2.16,4.52-2.17c1.74,0,9.37,2.88,11.24,2.89,2.71,0,6-.63,7-4.31s-3-5.44-6.73-5.43c-2.86,0-10.11,5.16-17.74,3s-14.62-9.89-14.63-12.88A1.66,1.66,0,0,1,208,198Z"/><path class="cls-1" d="M206.91,122.21c18.57-11.88,28.1-11.77,31.14-20.33s-6.68-20.63-23-6.68S185.78,132.14,185,147.07s3.15,30.86,6,36.45a49.84,49.84,0,0,0,6.59,9.73s-7.57-19-2.07-32.71,18.66-18.67,22.7-16,10.22-1,8.84-5.7-11.79-12-21-4.32-15.43,28.59-15.43,28.59S188.33,134.1,206.91,122.21Z"/><path class="cls-1" d="M199.16,99.43c-3.42,3.28-9.37,12.57-11.81,18.16-3.33,7.67-4.22,23.48-4.22,23.48s3.14-13.74,5.89-19.64a76.11,76.11,0,0,1,10.22-16.51c3.73-4.32,7.64-6.8,11.09-10.52A95.76,95.76,0,0,0,225,73.75c6.79-13.33,7.05-39.72-.09-60S203.26-.84,201.62,8.08s6.66,13.61,16.81,33.19-6.31,43.55-6.31,43.55,5.1-21.22.93-32.48-16.82-10.16-20.38-6.76,0,9.64,4.82,9.36,13.76,10.55,11.65,25.21A35.06,35.06,0,0,1,199.16,99.43Z"/><path class="cls-1" d="M150.13,150.13c-2.28,2.28.74,9,12.18,20.44s29.28,21,29.28,21-9.57-17.83-21-29.28S152.41,147.85,150.13,150.13Z"/></g></g></g></svg>