<svg xmlns="http://www.w3.org/2000/svg" viewBox="0 0 175.68 130.9"><defs><style>.cls-1{fill:#efbf69;}</style></defs><title>Element-Mahkota (2)</title><g id="Layer_2" data-name="Layer 2"><g id="_4-Date" data-name="4-Date"><g id="Element-Mahkota"><path class="cls-1" d="M94.68,19.7a23.56,23.56,0,0,1-5.05-5.22,2.14,2.14,0,0,0-3.58,0,23.56,23.56,0,0,1-5,5.22c-7,5.39-15.62,12.47-17.15,22.06a14.23,14.23,0,0,0,6,14.09c8.64,6,17.93-.13,17.94-8.36a3.69,3.69,0,0,0-.22-1.19c-2.92-8-9.13-8.8-12.73-5.83a3.86,3.86,0,0,0-1.49,3,3.93,3.93,0,0,0,3.93,3.93A3.89,3.89,0,0,0,81,44.83c2.05,1.35,2.67,4.69-2.58,7.69a2.79,2.79,0,0,1-1.32.37A8.12,8.12,0,0,1,69,44.79c0-8.51,8.5-15,15.37-20.25,1.21-.93,2.39-1.83,3.5-2.73,1.11.9,2.3,1.8,3.51,2.73,6.86,5.24,15.36,11.74,15.37,20.25a3.7,3.7,0,0,1-.33,1.46c-4.75,10.4-13.17,6.79-13.17,1.24a3.19,3.19,0,0,1,1.5-2.66,3.91,3.91,0,1,0,6.1-4.36c-3.61-3-9.8-2.15-12.73,5.81a3.59,3.59,0,0,0-.22,1.21c0,8.23,9.29,14.33,17.93,8.36a14.21,14.21,0,0,0,6-14.09C110.3,32.17,101.74,25.09,94.68,19.7Z"/><path class="cls-1" d="M105.7,101.41a20.26,20.26,0,0,0-6.25,1,18.31,18.31,0,0,0-11.61,12,18.31,18.31,0,0,0-11.61-12,20.25,20.25,0,0,0-6.24-1c-10.26,0-11.75,6.62-11.75,9.3a7.73,7.73,0,0,0,14.51,3.75l0,0s6.91,4.06,10.16,9.24a40.12,40.12,0,0,1,3.12,6,2,2,0,0,0,3.62,0,41.37,41.37,0,0,1,3.08-6c3.21-5.2,10.16-9.24,10.16-9.24l0,0a7.74,7.74,0,0,0,14.52-3.75C117.45,108,116,101.41,105.7,101.41Z"/><path class="cls-1" d="M87.84,100.57c5.94-5.13,9.89-19.52,9.89-24.79S95.59,63.5,87.84,63.5,78,70.5,78,75.78,81.91,95.44,87.84,100.57Z"/><path class="cls-1" d="M79.05,97.27s0-9.51-8-15.42-15.08-3.67-16.14.9,3,7.3,7.59,8.2S75.49,93,79.05,97.27Z"/><path class="cls-1" d="M96.63,97.27s0-9.51,8-15.42,15.08-3.67,16.13.9-3,7.3-7.58,8.2S100.19,93,96.63,97.27Z"/><path class="cls-1" d="M60.13,65.64A4.85,4.85,0,1,1,65,70.48,4.85,4.85,0,0,1,60.13,65.64Z"/><path class="cls-1" d="M0,93.67a7.1,7.1,0,1,1,7.1,7.1A7.1,7.1,0,0,1,0,93.67Z"/><path class="cls-1" d="M115.55,65.64a4.85,4.85,0,1,0-4.84,4.84A4.85,4.85,0,0,0,115.55,65.64Z"/><path class="cls-1" d="M92.69,4.85A4.85,4.85,0,1,0,87.84,9.7,4.85,4.85,0,0,0,92.69,4.85Z"/><path class="cls-1" d="M58.24,100.2s-4.7-9.72-17.94-9c-12.62.71-14.9,7.17-12.93,11.35,1.87,4,8.83,3.23,13.58.93S52.1,98.57,58.24,100.2Z"/><path class="cls-1" d="M41.83,86.57c.78-4.53-1.76-12-11.67-15.08C22.08,69,14.78,71.46,12.92,76s1.33,8.4,6.39,7.68S28.54,82,33.15,82.52A13.72,13.72,0,0,1,41.83,86.57Z"/><path class="cls-1" d="M39,69.32a17.5,17.5,0,0,1-3.82-18.49c3.3-8.78,11.46-10.74,15.29-8.78s5.06,6.3.82,9.4S37.29,60.23,39,69.32Z"/><path class="cls-1" d="M117.45,100.2s4.69-9.72,17.94-9c12.61.71,14.9,7.17,12.92,11.35-1.87,4-8.83,3.23-13.58.93S123.58,98.57,117.45,100.2Z"/><path class="cls-1" d="M133.85,86.57c-.78-4.53,1.76-12,11.68-15.08,8.07-2.52,15.37,0,17.23,4.51s-1.33,8.4-6.39,7.68-9.22-1.72-13.84-1.16A13.77,13.77,0,0,0,133.85,86.57Z"/><path class="cls-1" d="M136.64,69.32a17.5,17.5,0,0,0,3.82-18.49c-3.3-8.78-11.46-10.74-15.28-8.78s-5.06,6.3-.83,9.4S138.4,60.23,136.64,69.32Z"/><circle class="cls-1" cx="168.58" cy="93.67" r="7.1"/></g></g></g></svg>