<svg xmlns="http://www.w3.org/2000/svg" viewBox="0 0 247.13 247.13"><defs><style>.cls-1{fill:#efbf69;}</style></defs><title>Element-Border-2</title><g id="Layer_2" data-name="Layer 2"><g id="_1-Header" data-name="1-Header"><g id="Element-Border-2"><path class="cls-1" d="M104.92,47.89a76.11,76.11,0,0,0,16.51,10.22c5.89,2.75,19.65,5.89,19.65,5.89s-15.82-.88-23.49-4.22C112,57.34,102.71,51.39,99.43,48A35,35,0,0,0,80.15,38c-14.67-2.12-25.49,6.83-25.22,11.64S49,58,45.58,54.46s-4.49-16.2,6.76-20.38S84.82,35,84.82,35s-24-16.45-43.55-6.31S17,47.15,8.08,45.51s-14.53-16.1,5.71-23.25,46.63-6.89,60-.1A95.12,95.12,0,0,1,94.39,36.81C98.12,40.25,100.6,44.16,104.92,47.89Z"/><path class="cls-1" d="M160.53,51.62c13.76,5.5,32.72-2.07,32.72-2.07a49.33,49.33,0,0,1-9.73,6.59c-5.6,2.85-21.51,6.78-36.45,6S109.15,48.38,95.2,32.07s-1.87-26,6.68-23,8.45,12.57,20.33,31.14,40.88,16.31,40.88,16.31S142.16,50.34,134.5,41.1s-.4-19.65,4.32-21,8.35,4.82,5.7,8.84S146.78,46.12,160.53,51.62Z"/><path class="cls-1" d="M208,49.09c2.87,0,8.65-5.23,13.86-6.11a21.83,21.83,0,0,1,18.26,5.71c5.32,5.29,8.17,13.63,6.6,20.71s-13.15,15.45-19.4,15.93-16.17-5.59-16.17-13.9,5.29-10.17,8.87-10.14c5.43,0,8.44,3.72,8.44,7.14,0,1.7-1.86,4.14-3.69,5.15s-4.18.86-4.2,2.43c0,2.89,3.47,4.89,6.47,4.89,6.57,0,11.44-4.45,11.45-11.47a17.11,17.11,0,0,0-17.32-16.89c-9.58,0-19.19,7.15-20.24,14.9-1,7.27.69,9.54,5.21,14s7.08,10.87,3.64,12.28C201.12,97.3,195.41,77.84,197,69s4.26-15.21,4.26-16.76-1-2.28-3-2.3a7.15,7.15,0,0,0-1.22.15,7.15,7.15,0,0,0,.15-1.22c0-2-.73-3-2.3-3s-7.92,2.68-16.76,4.26S149.83,46,153.36,37.37c1.41-3.44,7.76-.88,12.28,3.64s6.78,6.19,14.05,5.21c7.75-1,14.89-10.66,14.9-20.24A17.11,17.11,0,0,0,177.7,8.66c-7,0-11.47,4.88-11.47,11.45,0,3,2,6.46,4.89,6.47,1.57,0,1.42-2.47,2.44-4.19s3.45-3.7,5.14-3.7c3.43,0,7.16,3,7.15,8.44,0,3.58-1.71,8.87-10.15,8.87s-14.38-9.92-13.9-16.17S170.65,2,177.73.43,193.15,1.71,198.44,7a21.82,21.82,0,0,1,5.71,18.27c-.88,5.2-6.11,11-6.11,13.85A1.66,1.66,0,0,0,199.62,41c3,0,10.72-7,12.87-14.63s-3-14.87-3-17.74c0-3.73,1.74-7.74,5.43-6.73s4.31,4.3,4.31,7c0,1.87-2.88,9.5-2.89,11.24,0,3.14,1.17,4.51,2.17,4.52S233.3,11.61,229.21,6c-6.49-8.84,11.65-2.4,12.63-.74,1.66,1,8.1,19.12-.74,12.63-5.57-4.09-18.68,9.71-18.67,10.7s1.38,2.16,4.52,2.17c1.74,0,9.37-2.88,11.24-2.89,2.71,0,6,.63,7,4.31s-3,5.44-6.73,5.44c-2.86,0-10.11-5.17-17.74-3s-14.62,9.88-14.63,12.87A1.66,1.66,0,0,0,208,49.09Z"/><path class="cls-1" d="M206.91,124.92c18.57,11.88,28.1,11.77,31.14,20.33s-6.68,20.63-23,6.68S185.78,115,185,100.06s3.15-30.85,6-36.45a49.84,49.84,0,0,1,6.59-9.73s-7.57,19-2.07,32.72,18.66,18.66,22.7,16,10.22,1,8.84,5.7-11.79,12-21,4.33S190.6,84,190.6,84,188.33,113,206.91,124.92Z"/><path class="cls-1" d="M199.16,147.7c-3.42-3.28-9.37-12.56-11.81-18.16-3.33-7.67-4.22-23.48-4.22-23.48s3.14,13.75,5.89,19.65a76.27,76.27,0,0,0,10.22,16.5c3.73,4.32,7.64,6.8,11.09,10.52A95.76,95.76,0,0,1,225,173.38c6.79,13.33,7.05,39.72-.09,60s-21.62,14.63-23.26,5.71,6.66-13.61,16.81-33.19-6.31-43.54-6.31-43.54,5.1,21.21.93,32.47-16.82,10.16-20.38,6.77,0-9.64,4.82-9.36,13.76-10.55,11.65-25.22A35.09,35.09,0,0,0,199.16,147.7Z"/><path class="cls-1" d="M150.13,97c-2.28-2.28.74-9,12.18-20.43s29.28-21,29.28-21-9.57,17.83-21,29.28S152.41,99.28,150.13,97Z"/></g></g></g></svg>